HIERARCHY
ROOT Hips
{
	OFFSET -0.001795 -0.223333 0.028219
	CHANNELS 6 Xposition Yposition Zposition Zrotation Yrotation Xrotation 
	JOINT LeftUpLeg
	{
		OFFSET 0.069520 -0.091406 -0.006815
		CHANNELS 3 Zrotation Yrotation Xrotation
		JOINT LeftLeg
		{
			OFFSET 0.034277 -0.375199 -0.004496
			CHANNELS 3 Zrotation Yrotation Xrotation
			JOINT LeftFoot
			{
				OFFSET -0.013596 -0.397961 -0.043693
				CHANNELS 3 Zrotation Yrotation Xrotation
				JOINT LeftToe
				{
					OFFSET 0.026358 -0.055791 0.119288
					CHANNELS 3 Zrotation Yrotation Xrotation
					End Site
					{
						OFFSET 0.000000 0.000000 0.000000
					}
				}
			}
		}
	}
	JOINT RightUpLeg
	{
		OFFSET -0.067670 -0.090522 -0.004320
		CHANNELS 3 Zrotation Yrotation Xrotation
		JOINT RightLeg
		{
			OFFSET -0.038290 -0.382569 -0.008850
			CHANNELS 3 Zrotation Yrotation Xrotation
			JOINT RightFoot
			{
				OFFSET 0.015774 -0.398415 -0.042312
				CHANNELS 3 Zrotation Yrotation Xrotation
				JOINT RightToe
				{
					OFFSET -0.025372 -0.048144 0.123348
					CHANNELS 3 Zrotation Yrotation Xrotation
					End Site
					{
						OFFSET 0.000000 0.000000 0.000000
					}
				}
			}
		}
	}
	JOINT Spine
	{
		OFFSET -0.002533 0.108963 -0.026696
		CHANNELS 3 Zrotation Yrotation Xrotation
		JOINT Spine1
		{
			OFFSET 0.005487 0.135180 0.001092
			CHANNELS 3 Zrotation Yrotation Xrotation
			JOINT Spine2
			{
				OFFSET 0.001457 0.052922 0.025425
				CHANNELS 3 Zrotation Yrotation Xrotation
				JOINT Neck
				{
					OFFSET -0.002778 0.213870 -0.042857
					CHANNELS 3 Zrotation Yrotation Xrotation
					JOINT Head
					{
						OFFSET 0.005152 0.064970 0.051349
						CHANNELS 3 Zrotation Yrotation Xrotation
						End Site
						{
							OFFSET 0.000000 0.000000 0.000000
						}
					}
				}
				JOINT LeftShoulder
				{
					OFFSET 0.078845 0.121749 -0.034090
					CHANNELS 3 Zrotation Yrotation Xrotation
					JOINT LeftArm
					{
						OFFSET 0.090977 0.030469 -0.008868
						CHANNELS 3 Zrotation Yrotation Xrotation
						JOINT LeftForeArm
						{
							OFFSET 0.259612 -0.012772 -0.027456
							CHANNELS 3 Zrotation Yrotation Xrotation
							JOINT LeftHand
							{
								OFFSET 0.249234 0.008986 -0.001171
								CHANNELS 3 Zrotation Yrotation Xrotation
								End Site
								{
									OFFSET 0.000000 0.000000 0.000000
								}
							}
						}
					}
				}
				JOINT RightShoulder
				{
					OFFSET -0.081759 0.118833 -0.038615
					CHANNELS 3 Zrotation Yrotation Xrotation
					JOINT RightArm
					{
						OFFSET -0.096012 0.032551 -0.009143
						CHANNELS 3 Zrotation Yrotation Xrotation
						JOINT RightForeArm
						{
							OFFSET -0.253742 -0.013329 -0.021401
							CHANNELS 3 Zrotation Yrotation Xrotation
							JOINT RightHand
							{
								OFFSET -0.255298 0.007772 -0.005559
								CHANNELS 3 Zrotation Yrotation Xrotation
								End Site
								{
									OFFSET 0.000000 0.000000 0.000000
								}
							}
						}
					}
				}
			}
		}
	}
}
MOTION
Frames: 16
Frame Time: 0.050000
0.000000 0.947744 0.000000 1.902375 21.120745 5.956957 5.407663 -0.427598 -1.747655 -6.161563 0.266478 -1.916665 5.705934 14.538580 10.249927 0.000000 0.000000 0.000000 -5.734739 0.238448 -16.657178 1.267598 -0.205673 7.368566 -1.694121 -5.176335 10.947723 0.000000 0.000000 0.000000 9.023774 -4.141040 22.401335 -2.537170 1.641647 -13.921875 -1.923986 -2.570452 24.465251 13.759186 -5.969604 -22.137898 0.000000 0.000000 0.000000 -16.254167 -37.011314 15.970680 -34.611777 -33.622029 3.835440 10.159359 -35.385663 -2.121820 0.000000 0.000000 0.000000 21.586236 25.089095 16.242070 30.703944 40.166777 4.325613 -11.724984 34.650837 -1.770233 0.000000 0.000000 0.000000 
-0.001170 0.947297 -0.000288 2.930749 21.502686 7.528264 3.668450 -0.391155 -3.038725 -4.277073 0.192373 -3.424779 5.827661 15.257995 11.939845 0.000000 0.000000 0.000000 -7.397477 -0.109460 -17.910772 3.250795 -0.624583 6.713280 -1.701709 -5.142165 10.799848 0.000000 0.000000 0.000000 8.464588 -3.818919 21.383725 -1.920503 1.441877 -13.596506 -2.090544 -2.352642 24.361822 15.714252 -7.650968 -20.432455 0.000000 0.000000 0.000000 -15.945890 -37.417692 16.023075 -33.892282 -34.337914 3.881730 11.820417 -36.480163 -2.769024 0.000000 0.000000 0.000000 24.067781 23.840097 16.573018 29.402047 39.976297 3.669232 -12.250766 36.603068 -1.952733 0.000000 0.000000 0.000000 
-0.001910 0.947554 -0.000594 2.641201 20.905638 7.535472 3.874093 -0.425897 -3.532798 -4.621645 0.219565 -2.685088 5.973985 15.525279 12.229406 0.000000 0.000000 0.000000 -6.847745 0.011258 -18.557316 3.070332 -0.620384 8.138059 -1.523827 -4.833107 10.323729 0.000000 0.000000 0.000000 8.973455 -3.951834 21.511507 -2.743383 1.692649 -14.290384 -1.365229 -3.276072 23.939884 14.903336 -7.656223 -19.035999 0.000000 0.000000 0.000000 -17.314305 -37.178845 16.641887 -31.657343 -36.307517 3.907380 11.365018 -36.585438 -2.529581 0.000000 0.000000 0.000000 22.559308 23.151793 15.226255 30.269999 40.593228 4.191460 -10.089846 37.754395 -1.318057 0.000000 0.000000 0.000000 
-0.002492 0.948052 -0.000743 2.610416 21.377131 7.462431 3.619824 -0.398726 -3.251717 -3.522316 0.187018 -2.961730 6.934992 16.772243 11.972319 0.000000 0.000000 0.000000 -6.861042 -0.010195 -18.330789 3.391107 -0.680603 7.498834 -1.094127 -3.993752 10.902110 0.000000 0.000000 0.000000 9.665638 -4.064766 21.083825 -2.886086 1.737391 -13.777058 -1.775835 -3.700457 23.802585 15.857402 -8.397720 -18.756291 0.000000 0.000000 0.000000 -17.507221 -38.576664 17.513424 -30.193292 -36.681978 3.724023 12.389653 -38.023014 -2.987203 0.000000 0.000000 0.000000 22.084464 23.096282 14.977222 29.407453 41.570052 4.253935 -11.460084 37.780052 -1.759410 0.000000 0.000000 0.000000 
-0.002756 0.947371 -0.000663 2.689167 21.346056 7.277569 3.493951 -0.402012 -3.449383 -3.958524 0.203192 -2.395187 7.646056 17.780132 12.233466 0.000000 0.000000 0.000000 -6.803084 0.010215 -18.170711 3.379421 -0.696369 8.016350 -1.460837 -4.762209 11.276709 0.000000 0.000000 0.000000 9.724445 -4.186359 21.580003 -2.497143 1.624820 -14.717594 -2.443455 -4.012484 23.983337 15.721305 -8.473833 -18.296385 0.000000 0.000000 0.000000 -17.455428 -39.529473 18.106317 -28.382344 -37.863138 3.585659 12.967546 -38.970323 -3.260515 0.000000 0.000000 0.000000 21.538601 22.699986 14.479455 29.574393 42.060822 4.462490 -11.568378 37.867691 -1.796502 0.000000 0.000000 0.000000 
-0.002815 0.947324 -0.000375 2.501150 21.242172 7.047493 3.694112 -0.404110 -3.351614 -3.636977 0.197764 -2.155125 7.753962 17.905975 12.174852 0.000000 0.000000 0.000000 -6.665669 0.025703 -18.612302 3.389068 -0.731044 8.889483 -1.380794 -4.600933 10.955409 0.000000 0.000000 0.000000 10.182073 -4.316504 21.659898 -2.899183 1.744158 -14.899770 -2.510501 -4.466331 23.987898 15.736194 -8.767368 -17.662405 0.000000 0.000000 0.000000 -16.484243 -40.146277 18.302891 -27.973578 -39.230200 3.737871 13.505073 -39.909961 -3.512829 0.000000 0.000000 0.000000 21.762727 22.948521 14.505563 28.257997 41.704098 3.994315 -12.158675 38.473292 -2.059384 0.000000 0.000000 0.000000 
-0.002651 0.946671 0.000148 2.656795 20.870839 6.842600 3.572104 -0.404837 -3.519395 -3.954285 0.214659 -1.614137 8.332362 18.643878 12.061833 0.000000 0.000000 0.000000 -6.824953 0.013837 -18.525081 3.484025 -0.774254 9.555490 -1.780900 -5.408513 10.620503 0.000000 0.000000 0.000000 10.284134 -4.335486 21.744917 -2.927361 1.746974 -15.026057 -2.685462 -4.714940 24.099392 15.722875 -8.849433 -17.567548 0.000000 0.000000 0.000000 -15.997097 -40.260570 18.317380 -27.405956 -40.237454 3.793024 14.344559 -40.885510 -3.899758 0.000000 0.000000 0.000000 21.623857 23.109072 14.419369 28.030645 42.572678 4.152031 -13.184784 37.980696 -2.372513 0.000000 0.000000 0.000000 
-0.002478 0.946786 0.000660 2.687932 20.284135 6.440220 3.462714 -0.378336 -3.227149 -4.136021 0.230551 -1.159186 8.491379 18.771874 11.738312 0.000000 0.000000 0.000000 -6.767049 0.040413 -18.809666 3.421570 -0.793012 10.650319 -1.865770 -5.631420 10.310760 0.000000 0.000000 0.000000 10.373032 -4.299146 21.695974 -2.843737 1.715980 -14.693732 -2.885815 -4.407497 23.968350 16.412838 -9.559633 -16.926912 0.000000 0.000000 0.000000 -15.256151 -40.629610 18.271467 -27.022400 -40.847292 3.814742 15.689134 -41.788017 -4.518454 0.000000 0.000000 0.000000 22.195295 23.341014 14.698481 27.052864 42.844341 3.905815 -13.903619 37.487004 -2.588564 0.000000 0.000000 0.000000 
-0.002366 0.946693 0.001365 2.928598 19.901320 6.200040 3.307219 -0.360528 -3.096000 -4.346199 0.247069 -0.521715 8.881598 19.267001 11.656090 0.000000 0.000000 0.000000 -6.800505 0.045572 -18.866685 3.460479 -0.831896 11.470513 -2.016293 -5.973382 10.195688 0.000000 0.000000 0.000000 10.428218 -4.267293 21.644834 -2.542750 1.620052 -14.332978 -3.198707 -4.091044 24.093832 17.163138 -10.097168 -16.928061 0.000000 0.000000 0.000000 -14.440144 -40.760479 18.035419 -26.622338 -41.775907 3.878595 16.945857 -41.904413 -5.030420 0.000000 0.000000 0.000000 21.951368 23.441069 14.716733 26.559497 43.936325 4.008317 -14.326221 36.314751 -2.642984 0.000000 0.000000 0.000000 
-0.002398 0.946502 0.002308 3.060800 19.461919 5.884337 3.297460 -0.338877 -2.794781 -4.494931 0.261762 -0.189665 9.096269 19.518469 11.542512 0.000000 0.000000 0.000000 -6.964801 0.023874 -19.137068 3.651475 -0.914529 12.402792 -2.352372 -6.714375 10.252682 0.000000 0.000000 0.000000 10.648191 -4.261977 21.533754 -2.518259 1.605623 -14.077528 -3.150691 -4.100971 24.039634 17.881692 -10.866969 -16.352427 0.000000 0.000000 0.000000 -14.224086 -41.021008 18.154607 -25.709590 -41.918888 3.659473 17.893403 -43.091667 -5.563884 0.000000 0.000000 0.000000 21.912923 23.622118 14.704398 26.779336 44.431886 4.212995 -14.492706 35.823343 -2.673492 0.000000 0.000000 0.000000 
-0.002463 0.946474 0.003294 2.967239 18.689237 5.494365 3.386233 -0.320683 -2.499322 -4.546095 0.276391 0.439383 9.256175 19.689261 11.371712 0.000000 0.000000 0.000000 -6.713696 0.106688 -19.304986 3.794653 -0.952405 12.927417 -2.417365 -6.963195 10.499689 0.000000 0.000000 0.000000 10.724027 -4.215638 21.493000 -2.237070 1.503464 -13.814468 -2.993200 -4.129994 23.908470 17.989747 -11.275036 -15.509703 0.000000 0.000000 0.000000 -14.178455 -40.955236 18.197354 -25.125185 -42.037755 3.535346 18.305511 -43.199075 -5.728140 0.000000 0.000000 0.000000 22.146328 24.086492 14.864164 27.147812 44.708979 4.433244 -14.352808 35.547765 -2.644238 0.000000 0.000000 0.000000 
-0.002292 0.946414 0.004188 2.796385 17.700062 5.046367 3.559715 -0.320273 -2.480031 -4.645322 0.295383 1.398511 9.382133 19.789010 10.941611 0.000000 0.000000 0.000000 -6.642416 0.166033 -19.421326 3.978202 -0.987637 13.351490 -2.643308 -7.553540 10.703553 0.000000 0.000000 0.000000 10.819593 -4.157197 21.431609 -1.751234 1.326072 -13.287859 -2.775555 -4.328990 23.379422 17.725044 -11.469956 -14.479984 0.000000 0.000000 0.000000 -13.121802 -40.472044 17.771612 -24.905478 -42.172679 3.515122 19.095929 -43.660652 -6.089446 0.000000 0.000000 0.000000 22.252985 24.386407 14.788792 28.069372 45.386648 4.974742 -13.381460 34.894035 -2.343510 0.000000 0.000000 0.000000 
-0.001725 0.946676 0.004685 2.711414 16.513351 4.738438 3.522494 -0.321865 -2.668552 -4.736136 0.314037 2.707774 9.636015 20.035044 10.175272 0.000000 0.000000 0.000000 -6.639600 0.217227 -19.907061 4.419208 -1.096800 14.023173 -2.667262 -7.748669 10.626097 0.000000 0.000000 0.000000 11.028178 -4.127036 21.392998 -1.343479 1.172206 -13.415952 -2.490232 -4.379443 23.371091 17.989701 -11.885883 -14.018588 0.000000 0.000000 0.000000 -11.940757 -40.251187 17.414229 -24.636417 -42.428061 3.481856 19.574521 -43.269403 -6.194844 0.000000 0.000000 0.000000 22.179660 24.526199 14.604072 29.568518 46.014814 5.679804 -12.641194 34.773207 -2.133808 0.000000 0.000000 0.000000 
-0.000587 0.946716 0.004707 2.620170 15.226543 4.345661 3.606696 -0.327799 -2.870130 -4.849299 0.333860 4.175028 10.203973 20.806789 9.891300 0.000000 0.000000 0.000000 -6.759361 0.257879 -20.101369 4.607879 -1.120677 14.518947 -2.415439 -7.393247 10.396150 0.000000 0.000000 0.000000 11.171192 -4.048597 21.250949 -0.767310 0.948744 -13.012043 -2.081845 -4.680973 22.746452 17.153919 -11.712150 -12.768668 0.000000 0.000000 0.000000 -10.496088 -39.615961 16.839056 -24.263253 -42.444164 3.417223 19.390985 -43.265793 -6.080183 0.000000 0.000000 0.000000 21.964697 24.829152 14.355609 30.836244 46.820013 6.443870 -11.989848 34.559987 -1.965220 0.000000 0.000000 0.000000 
0.000954 0.947174 0.004239 2.556474 13.842704 4.008737 3.535729 -0.331594 -3.119237 -4.895816 0.353018 5.091657 10.335677 20.982831 9.597291 0.000000 0.000000 0.000000 -6.990087 0.283089 -20.250848 5.035026 -1.203422 14.976076 -2.060686 -6.853052 10.290380 0.000000 0.000000 0.000000 11.443118 -4.121038 21.699597 -0.179017 0.727626 -13.182598 -1.726719 -4.614984 22.335895 17.061741 -11.891837 -12.027311 0.000000 0.000000 0.000000 -8.598976 -39.122500 16.119708 -24.340824 -42.688201 3.517652 19.968404 -43.573015 -6.327606 0.000000 0.000000 0.000000 21.983990 24.954420 14.173383 31.779036 47.637843 7.083553 -11.497176 34.614040 -1.844729 0.000000 0.000000 0.000000 
0.002630 0.947664 0.003459 2.574283 12.589131 3.804488 3.578402 -0.357819 -3.660941 -5.018778 0.379399 6.160878 10.665616 21.502874 9.835705 0.000000 0.000000 0.000000 -7.276510 0.293507 -20.508476 5.226575 -1.213535 15.271867 -1.536153 -6.064135 10.822859 0.000000 0.000000 0.000000 11.578333 -4.067939 21.663321 0.335757 0.518216 -12.916229 -0.992591 -4.790052 22.047413 16.122128 -11.439028 -11.311197 0.000000 0.000000 0.000000 -6.278685 -38.608980 15.278167 -23.183950 -42.860221 3.263393 20.402083 -43.781087 -6.508105 0.000000 0.000000 0.000000 22.055336 25.507352 14.199133 32.451453 48.252483 7.578315 -11.886757 34.898227 -2.006716 0.000000 0.000000 0.000000 
